{"title":"Michael Peterson - Super Hits, Volume 5 FLAC","uid":4792339,"size":255118786,"categoryP":"audio","categoryS":"flac","magnet":"?xt=urn:btih:ab8e739996dc0c60495e8a9cfdaba2ad56d628d3&amp;dn=Michael+Peterson+-+Super+Hits%2C+Volume+5+FLAC&amp;tr=udp%3A%2F%2Ftracker.openbittorrent.com%3A80&amp;tr=udp%3A%2F%2Fopen.demonii.com%3A1337&amp;tr=udp%3A%2F%2Ftracker.coppersurfer.tk%3A6969&amp;tr=udp%3A%2F%2Fexodus.desync.com%3A6969","seeders":0,"leechers":5,"uploader":null,"files":13,"time":1237757788,"description":"REM GENRE Country\nREM DATE 2000\nREM DISCID 8708700A\nREM COMMENT &quot;ExactAudioCopy v0.99pb3&quot;\nPERFORMER &quot;Michael Peterson &quot;\nTITLE &quot;Super Hit Series Volume 5 &quot;\nFILE &quot;Michael Peterson  - Super Hit Series Volume 5.flac&quot; WAVE\n  TRACK 01 AUDIO\n    TITLE &quot;Drink, Swear, Steal &amp; Lie&quot;\n    PERFORMER &quot;Michael Peterson &quot;\n    INDEX 00 00:00:00\n    INDEX 01 00:00:32\n  TRACK 02 AUDIO\n    TITLE &quot;From Here To Eternity&quot;\n    PERFORMER &quot;Michael Peterson &quot;\n    INDEX 01 03:02:27\n  TRACK 03 AUDIO\n    TITLE &quot;Somethin' 'Bout A Sunday&quot;\n    PERFORMER &quot;Michael Peterson &quot;\n    INDEX 01 06:39:00\n  TRACK 04 AUDIO\n    TITLE &quot;I Owe It All To You&quot;\n    PERFORMER &quot;Michael Peterson &quot;\n    INDEX 01 10:38:05\n  TRACK 05 AUDIO\n    TITLE &quot;Too Good To Be True&quot;\n    PERFORMER &quot;Michael Peterson &quot;\n    INDEX 01 14:35:50\n  TRACK 06 AUDIO\n    TITLE &quot;Laughin' All The Way To The Bank&quot;\n    PERFORMER &quot;Michael Peterson &quot;\n    INDEX 00 17:54:02\n    INDEX 01 17:55:45\n  TRACK 07 AUDIO\n    TITLE &quot;I Finally Passed The Bar&quot;\n    PERFORMER &quot;Michael Peterson &quot;\n    INDEX 01 20:56:70\n  TRACK 08 AUDIO\n    TITLE &quot;Sure Feels Real Good&quot;\n    PERFORMER &quot;Michael Peterson &quot;\n    INDEX 01 24:39:32\n  TRACK 09 AUDIO\n    TITLE &quot;When The Bartender Cries&quot;\n    PERFORMER &quot;Michael Peterson &quot;\n    INDEX 00 27:30:37\n    INDEX 01 27:31:65\n  TRACK 10 AUDIO\n    TITLE &quot;Two Of The Lucky Ones&quot;\n    PERFORMER &quot;Michael Peterson &quot;\n    INDEX 00 31:14:37\n    INDEX 01 31:15:42\n","torrent":{"xt":"urn:btih:ab8e739996dc0c60495e8a9cfdaba2ad56d628d3","amp;dn":"Michael+Peterson+-+Super+Hits%2C+Volume+5+FLAC","amp;tr":["udp%3A%2F%2Ftracker.openbittorrent.com%3A80","udp%3A%2F%2Fopen.demonii.com%3A1337","udp%3A%2F%2Ftracker.coppersurfer.tk%3A6969","udp%3A%2F%2Fexodus.desync.com%3A6969"],"infoHash":"ab8e739996dc0c60495e8a9cfdaba2ad56d628d3","infoHashBuffer":{"type":"Buffer","data":[171,142,115,153,150,220,12,96,73,94,138,156,253,171,162,173,86,214,40,211]},"announce":[],"urlList":[]}}